<?xml version="1.0" encoding="UTF-8"?>
<!DOCTYPE svg PUBLIC "-//W3C//DTD SVG 1.1//EN" "http://www.w3.org/Graphics/SVG/1.1/DTD/svg11.dtd">
<svg xmlns="http://www.w3.org/2000/svg" version="1.1" width="500px" height="500px"
     style="shape-rendering:geometricPrecision; text-rendering:geometricPrecision; image-rendering:optimizeQuality; fill-rule:evenodd; clip-rule:evenodd"
>
    <g>
        <path style="opacity:0.997" fill="#535ee7"
              d="M 123.5,91.5 C 143.312,90.4785 152.479,99.8119 151,119.5C 147.517,130.483 140.017,135.816 128.5,135.5C 125.379,149.819 121.712,163.986 117.5,178C 138.019,185.186 147.352,199.686 145.5,221.5C 159.128,224.792 172.794,227.625 186.5,230C 203.601,190.453 232.934,176.786 274.5,189C 286.099,194.43 295.765,202.264 303.5,212.5C 316.967,204.197 330.301,195.697 343.5,187C 332.185,172.805 329.352,156.971 335,139.5C 345.87,116.478 364.037,106.644 389.5,110C 409,114.833 421.167,127 426,146.5C 429.356,171.963 419.522,190.13 396.5,201C 394.212,201.822 391.878,202.489 389.5,203C 390.366,220.472 392.2,237.972 395,255.5C 402.911,260.563 404.577,267.23 400,275.5C 395.909,279.305 391.076,280.472 385.5,279C 378.93,275.345 376.763,269.845 379,262.5C 381.091,259.927 382.925,257.26 384.5,254.5C 382.353,237.51 380.353,220.51 378.5,203.5C 368.14,203.713 358.806,200.713 350.5,194.5C 336.3,203.429 322.3,212.595 308.5,222C 321.301,260.618 309.968,289.618 274.5,309C 262.485,312.75 250.151,314.584 237.5,314.5C 232.5,324.5 227.5,334.5 222.5,344.5C 232.243,351.321 237.243,360.654 237.5,372.5C 252.499,374.1 267.499,375.767 282.5,377.5C 285.125,373.801 288.125,370.301 291.5,367C 303.136,361.413 311.969,364.246 318,375.5C 319.833,392.333 312.333,399.833 295.5,398C 291.028,396.028 287.695,392.862 285.5,388.5C 284.667,388.167 283.833,387.833 283,387.5C 268.16,385.866 253.327,384.199 238.5,382.5C 237.558,382.608 236.725,382.941 236,383.5C 224.677,404.94 208.177,410.107 186.5,399C 172.101,385.85 169.601,370.683 179,353.5C 188.03,342.906 199.53,338.239 213.5,339.5C 218.627,330.079 223.627,320.579 228.5,311C 197.218,297.947 182.551,274.447 184.5,240.5C 170.554,237.555 156.72,234.222 143,230.5C 128.647,252.464 109.813,257.297 86.5,245C 73.9936,235.157 69.1603,222.324 72,206.5C 77.3056,188.532 89.3056,178.532 108,176.5C 111.606,162.239 115.44,148.073 119.5,134C 106.953,125.374 104.12,114.207 111,100.5C 114.299,96.1179 118.466,93.1179 123.5,91.5 Z"/>
    </g>
</svg>
